<svg width="440" height="240" viewBox="0 0 440 240" fill="none" xmlns="http://www.w3.org/2000/svg">
<g id="Matchmaking Flow">
<g id="Voters List &#194;&#183; Blocked &#226;&#128;&#148; desktop">
<rect width="1440" height="1660" transform="translate(-500 -840)" fill="white"/>
<rect width="1440" height="1660" transform="translate(-500 -840)" fill="url(#paint0_linear_5307_521)" fill-opacity="0.2"/>
<g id="Page outer">
<g id="Page">
<g id="Cards and Filters">
<g id="Locked hero overlay" filter="url(#filter0_d_5307_521)">
<rect x="-40" y="-40" width="520" height="633" rx="20" fill="white"/>
<rect x="-39.5" y="-39.5" width="519" height="632" rx="19.5" stroke="#E8E8E8"/>
<g id="Top Content">
<g id="Illustration">
<g clip-path="url(#clip0_5307_521)">
<g id="Illustration_2">
<g id="Flag">
<path id="Vector 1" d="M292.05 7.75484L190.955 21.9629L200.418 89.3011L301.514 75.0931C304.317 74.6991 305.835 71.5981 304.427 69.1425L298.259 58.3835L289.947 43.8863C289.436 42.9942 289.288 41.9394 289.533 40.9409L293.527 24.7143L296.491 12.6719C297.167 9.92328 294.853 7.3609 292.05 7.75484Z" fill="#468DF4"/>
<g id="Mask group">
<mask id="mask0_5307_521" style="mask-type:alpha" maskUnits="userSpaceOnUse" x="190" y="7" width="115" height="83">
<path id="Vector 2" d="M292.05 7.75484L190.955 21.9629L200.418 89.3011L301.514 75.0931C304.317 74.6991 305.835 71.5981 304.427 69.1425L298.259 58.3835L289.947 43.8863C289.436 42.9942 289.288 41.9394 289.533 40.9409L293.527 24.7143L296.491 12.6719C297.167 9.92328 294.853 7.3609 292.05 7.75484Z" fill="#569AFF"/>
</mask>
<g mask="url(#mask0_5307_521)">
<rect id="Rectangle 3" x="172.466" y="5.375" width="133" height="53" transform="rotate(-8 172.466 5.375)" fill="#569AFF"/>
</g>
</g>
<g id="Content">
<rect id="Texts" x="203.951" y="28.2148" width="71" height="4" rx="2" transform="rotate(-8 203.951 28.2148)" fill="white"/>
<rect id="Texts_2" opacity="0.8" x="205.621" y="40.0981" width="51" height="4" rx="2" transform="rotate(-8 205.621 40.0981)" fill="white"/>
<rect id="Texts_3" opacity="0.6" x="207.292" y="51.9814" width="61" height="4" rx="2" transform="rotate(-8 207.292 51.9814)" fill="white"/>
<rect id="Texts_4" opacity="0.4" x="208.961" y="63.8643" width="39" height="4" rx="2" transform="rotate(-8 208.961 63.8643)" fill="white"/>
<rect id="Texts_5" opacity="0.2" x="210.631" y="75.7476" width="65" height="4" rx="2" transform="rotate(-8 210.631 75.7476)" fill="white"/>
</g>
</g>
<rect id="Stick" x="188" y="15.3086" width="4" height="199" rx="2" transform="rotate(-8 188 15.3086)" fill="#003685"/>
</g>
<g id="Background Illustration">
<path id="Vector 3" opacity="0.2" d="M34 48L116 124L28 196.5L323.5 173L415.5 67L28 41.5" stroke="#569AFF" stroke-width="2" stroke-dasharray="4 4"/>
<g id="Group 1">
<g id="Frame 31">
<rect x="8" y="176.5" width="42" height="42" rx="21" fill="white"/>
<rect x="8" y="176.5" width="42" height="42" rx="21" stroke="#3889FF" stroke-width="2"/>
<g id="Icon / Public goods funding">
<path id="Outline" fill-rule="evenodd" clip-rule="evenodd" d="M22.1563 191.957C21.6289 192.664 21.3164 193.773 21.6174 195.275C21.7047 195.711 21.9843 196.338 22.4817 197.129C22.9661 197.9 23.6021 198.741 24.3108 199.593C25.7274 201.295 27.3697 202.96 28.5025 204.06C28.7858 204.335 29.2145 204.335 29.4979 204.06C30.6307 202.96 32.273 201.295 33.6896 199.593C34.3983 198.741 35.0343 197.9 35.5187 197.129C36.0161 196.338 36.2957 195.711 36.383 195.275C36.684 193.773 36.3715 192.664 35.8441 191.957C35.3163 191.249 34.4959 190.833 33.5316 190.833C31.8765 190.833 31.1243 191.52 30.734 192.108C30.5193 192.432 30.3929 192.763 30.3212 193.017C30.2859 193.142 30.2655 193.243 30.2545 193.306C30.249 193.338 30.246 193.359 30.2446 193.37C30.2443 193.372 30.2441 193.374 30.2439 193.375C30.1799 194.013 29.6427 194.5 29.0002 194.5C28.3577 194.5 27.8204 194.013 27.7564 193.375C27.7563 193.374 27.7561 193.372 27.7558 193.37C27.7544 193.359 27.7514 193.338 27.7459 193.306C27.7349 193.243 27.7145 193.142 27.6792 193.017C27.6075 192.763 27.4811 192.432 27.2664 192.108C26.8761 191.52 26.1239 190.833 24.4688 190.833C23.5045 190.833 22.6841 191.249 22.1563 191.957ZM29.0002 190.258C29.8789 189.207 31.3139 188.333 33.5316 188.333C35.2527 188.333 36.8294 189.096 37.8482 190.462C38.8673 191.829 39.2507 193.689 38.8343 195.767C38.6575 196.649 38.1866 197.583 37.6352 198.46C37.0708 199.358 36.3598 200.293 35.6111 201.192C34.113 202.992 32.3995 204.727 31.2398 205.853C29.9863 207.071 28.014 207.071 26.7606 205.853C25.6009 204.727 23.8874 202.992 22.3893 201.192C21.6406 200.293 20.9296 199.358 20.3652 198.46C19.8138 197.583 19.3429 196.649 19.1661 195.767C18.7497 193.689 19.1331 191.829 20.1522 190.462C21.171 189.096 22.7477 188.333 24.4688 188.333C26.6864 188.333 28.1215 189.207 29.0002 190.258Z" fill="#3889FF"/>
</g>
</g>
<g id="Frame 32">
<rect x="391" y="47.5" width="42" height="42" rx="21" fill="white"/>
<rect x="391" y="47.5" width="42" height="42" rx="21" stroke="#3889FF" stroke-width="2"/>
<g id="Icon / Decentralization" clip-path="url(#clip1_5307_521)">
<path id="Outline_2" fill-rule="evenodd" clip-rule="evenodd" d="M404.5 65.1667V61H408.667V65.1667H404.5ZM402 60.1667C402 59.2462 402.746 58.5 403.667 58.5H409.5C410.42 58.5 411.167 59.2462 411.167 60.1667V66C411.167 66.9205 410.42 67.6667 409.5 67.6667H403.667C402.746 67.6667 402 66.9205 402 66V60.1667ZM404.5 76V71.8333H408.667V76H404.5ZM402 71C402 70.0795 402.746 69.3333 403.667 69.3333H409.5C410.42 69.3333 411.167 70.0795 411.167 71V76.8333C411.167 77.7538 410.42 78.5 409.5 78.5H403.667C402.746 78.5 402 77.7538 402 76.8333V71ZM415.333 61V65.1667H419.5V61H415.333ZM414.5 58.5C413.58 58.5 412.833 59.2462 412.833 60.1667V66C412.833 66.9205 413.58 67.6667 414.5 67.6667H420.333C421.254 67.6667 422 66.9205 422 66V60.1667C422 59.2462 421.254 58.5 420.333 58.5H414.5ZM415.333 76V71.8333H419.5V76H415.333ZM412.833 71C412.833 70.0795 413.58 69.3333 414.5 69.3333H420.333C421.254 69.3333 422 70.0795 422 71V76.8333C422 77.7538 421.254 78.5 420.333 78.5H414.5C413.58 78.5 412.833 77.7538 412.833 76.8333V71Z" fill="#3889FF"/>
</g>
</g>
<g id="Frame 33">
<rect x="301" y="151.5" width="42" height="42" rx="21" fill="white"/>
<rect x="301" y="151.5" width="42" height="42" rx="21" stroke="#3889FF" stroke-width="2"/>
<g id="Icon / Growth investment">
<path id="Outline_3" d="M317 165C316.31 165 315.75 165.56 315.75 166.25C315.75 166.94 316.31 167.5 317 167.5H325.232L314.866 177.866C314.378 178.354 314.378 179.146 314.866 179.634C315.354 180.122 316.146 180.122 316.634 179.634L327 169.268V177.5C327 178.19 327.56 178.75 328.25 178.75C328.94 178.75 329.5 178.19 329.5 177.5V166.458C329.5 166.422 329.499 166.386 329.496 166.35C329.524 165.998 329.403 165.636 329.134 165.366C328.864 165.097 328.502 164.976 328.15 165.004C328.114 165.001 328.078 165 328.042 165H317Z" fill="#3889FF"/>
</g>
</g>
<g id="Frame 34">
<rect x="8" y="21.5" width="42" height="42" rx="21" fill="white"/>
<rect x="8" y="21.5" width="42" height="42" rx="21" stroke="#3889FF" stroke-width="2"/>
<g id="Icon / Security" clip-path="url(#clip2_5307_521)">
<g id="Outline_4">
<path d="M28.9998 44.1667C29.6902 44.1667 30.2498 44.7263 30.2498 45.4167V46.25C30.2498 46.9404 29.6902 47.5 28.9998 47.5C28.3095 47.5 27.7498 46.9404 27.7498 46.25V45.4167C27.7498 44.7263 28.3095 44.1667 28.9998 44.1667Z" fill="#3889FF"/>
<path fill-rule="evenodd" clip-rule="evenodd" d="M28.9998 32.5C26.2384 32.5 23.9998 34.7386 23.9998 37.5V39.1896C22.1249 39.3968 20.6665 40.9864 20.6665 42.9167V48.75C20.6665 50.8211 22.3454 52.5 24.4165 52.5H33.5832C35.6542 52.5 37.3332 50.8211 37.3332 48.75V42.9167C37.3332 40.9864 35.8748 39.3968 33.9998 39.1896V37.5C33.9998 34.7386 31.7613 32.5 28.9998 32.5ZM31.4998 39.1667V37.5C31.4998 36.1193 30.3805 35 28.9998 35C27.6191 35 26.4998 36.1193 26.4998 37.5V39.1667H31.4998ZM24.4165 41.6667C23.7261 41.6667 23.1665 42.2263 23.1665 42.9167V48.75C23.1665 49.4404 23.7261 50 24.4165 50H33.5832C34.2735 50 34.8332 49.4404 34.8332 48.75V42.9167C34.8332 42.2263 34.2735 41.6667 33.5832 41.6667H24.4165Z" fill="#3889FF"/>
</g>
</g>
</g>
<g id="Frame 35">
<rect x="93" y="101.5" width="42" height="42" rx="21" fill="white"/>
<rect x="93" y="101.5" width="42" height="42" rx="21" stroke="#3889FF" stroke-width="2"/>
<g id="Icon / Cost efficiency">
<path id="Outline_5" fill-rule="evenodd" clip-rule="evenodd" d="M112.75 115.955C112.095 116.081 111.435 116.312 110.851 116.666C109.856 117.27 109 118.305 109 119.792C109 121.307 109.888 122.289 110.88 122.856C111.823 123.395 112.954 123.629 113.845 123.74C114.621 123.838 115.364 124.02 115.88 124.315C116.346 124.581 116.5 124.848 116.5 125.208C116.5 125.597 116.314 125.916 115.851 126.197C115.357 126.498 114.655 126.667 114 126.667C113.231 126.667 112.527 126.564 112.059 126.33C111.843 126.222 111.717 126.105 111.642 125.993C111.572 125.888 111.5 125.719 111.5 125.417C111.5 124.726 110.94 124.167 110.25 124.167C109.56 124.167 109 124.726 109 125.417C109 126.156 109.188 126.82 109.561 127.38C109.929 127.931 110.428 128.31 110.941 128.566C111.513 128.852 112.145 129.008 112.75 129.089V130.417C112.75 131.107 113.31 131.667 114 131.667C114.69 131.667 115.25 131.107 115.25 130.417V129.046C115.905 128.919 116.565 128.689 117.149 128.334C118.144 127.73 119 126.695 119 125.208C119 123.693 118.112 122.711 117.12 122.144C116.177 121.605 115.046 121.371 114.155 121.26C113.379 121.163 112.636 120.98 112.12 120.686C111.654 120.419 111.5 120.152 111.5 119.792C111.5 119.403 111.686 119.084 112.149 118.803C112.643 118.503 113.345 118.333 114 118.333C114.769 118.333 115.473 118.436 115.941 118.67C116.157 118.778 116.283 118.895 116.358 119.007C116.428 119.112 116.5 119.281 116.5 119.583C116.5 120.274 117.06 120.833 117.75 120.833C118.44 120.833 119 120.274 119 119.583C119 118.844 118.812 118.18 118.438 117.621C118.071 117.069 117.572 116.691 117.059 116.434C116.487 116.148 115.855 115.992 115.25 115.911V114.583C115.25 113.893 114.69 113.333 114 113.333C113.31 113.333 112.75 113.893 112.75 114.583V115.955Z" fill="#3889FF"/>
</g>
</g>
</g>
</g>
<path id="Ellipse 4" d="M175.949 240C175.949 234.222 177.075 228.5 179.264 223.162C181.453 217.824 184.66 212.973 188.705 208.887C192.749 204.802 197.55 201.561 202.834 199.349C208.117 197.138 213.781 196 219.5 196C225.219 196 230.882 197.138 236.166 199.349C241.45 201.561 246.251 204.802 250.295 208.887C254.339 212.973 257.547 217.824 259.736 223.162C261.924 228.5 263.051 234.222 263.051 240L175.949 240Z" fill="#D1E4FF"/>
</g>
</g>
</g>
</g>
</g>
</g>
</g>
</g>
</g>
<defs>
<filter id="filter0_d_5307_521" x="-42" y="-41" width="524" height="637" filterUnits="userSpaceOnUse" color-interpolation-filters="sRGB">
<feFlood flood-opacity="0" result="BackgroundImageFix"/>
<feColorMatrix in="SourceAlpha" type="matrix" values="0 0 0 0 0 0 0 0 0 0 0 0 0 0 0 0 0 0 127 0" result="hardAlpha"/>
<feOffset dy="1"/>
<feGaussianBlur stdDeviation="1"/>
<feComposite in2="hardAlpha" operator="out"/>
<feColorMatrix type="matrix" values="0 0 0 0 0 0 0 0 0 0 0 0 0 0 0 0 0 0 0.06 0"/>
<feBlend mode="normal" in2="BackgroundImageFix" result="effect1_dropShadow_5307_521"/>
<feBlend mode="normal" in="SourceGraphic" in2="effect1_dropShadow_5307_521" result="shape"/>
</filter>
<linearGradient id="paint0_linear_5307_521" x1="720" y1="0" x2="720" y2="338.66" gradientUnits="userSpaceOnUse">
<stop stop-color="#3889FF"/>
<stop offset="1" stop-color="white"/>
</linearGradient>
<clipPath id="clip0_5307_521">
<path d="M0 8.00001C0 3.58173 3.58172 0 8 0H432C436.418 0 440 3.58172 440 8V232C440 236.418 436.418 240 432 240H7.99999C3.58171 240 0 236.418 0 232V8.00001Z" fill="white"/>
</clipPath>
<clipPath id="clip1_5307_521">
<rect width="20" height="20" fill="white" transform="translate(402 58.5)"/>
</clipPath>
<clipPath id="clip2_5307_521">
<rect width="20" height="20" fill="white" transform="translate(19 32.5)"/>
</clipPath>
</defs>
</svg>
