<svg width="140" height="92" viewBox="0 0 140 92" fill="none" xmlns="http://www.w3.org/2000/svg" preserveAspectRatio="none" style="width: 23px; height: 15px; flex-shrink: 0">
  <path d="M139.694 43.125C138.477 29.981 128.723 17.785 112.931 9.659C111.386 8.869 109.757 8.099 108.091 7.385C96.849 2.556 83.79 0 70.339 0C56.887 0 43.819 2.556 32.577 7.385C30.854 8.127 29.263 8.879 27.737 9.668C11.955 17.785 2.201 29.981 0.974 43.125C0.881 44.074 0.834 45.032 0.834 45.991C0.834 46.949 0.881 47.907 0.974 48.856C2.191 62.01 11.945 74.205 27.737 82.323C29.282 83.131 30.92 83.901 32.596 84.615C43.847 89.444 56.896 92 70.339 92C83.781 92 96.821 89.444 108.072 84.615C109.711 83.92 111.349 83.15 112.931 82.341C128.723 74.215 138.477 62.019 139.694 48.875C139.787 47.935 139.834 46.977 139.834 46.009C139.834 45.042 139.787 44.083 139.694 43.144V43.125ZM67.062 76.141V85.198C51.944 83.272 39.785 67.976 38.53 49.279H54.406L55.633 42.702H38.53C39.785 23.996 51.944 8.71 67.062 6.793V15.85H73.615V6.793C88.733 8.719 100.883 24.005 102.138 42.702H85.681L86.73 49.279H102.138C100.883 67.985 88.733 83.272 73.615 85.198V76.141H67.062ZM7.611 42.702C9.586 27.82 24.929 14.901 47.096 9.367C38.231 17.41 32.764 29.427 31.978 42.702H7.611ZM31.968 49.279C32.755 62.564 38.221 74.581 47.086 82.623C24.929 77.09 9.586 64.171 7.611 49.279H31.968ZM108.7 49.279H133.057C131.082 64.161 115.73 77.09 93.572 82.623C102.437 74.59 107.913 62.574 108.7 49.279ZM108.7 42.702C107.913 29.417 102.437 17.4 93.572 9.367C115.739 14.892 131.082 27.811 133.057 42.702H108.7Z" fill="#EC762E" />
  <path d="M83.35 69.564L75.777 22.427H66.051L61.184 48.725L57.318 69.564H65.555L70.853 40.137L72.108 48.875L72.679 52.981L75.047 69.564H83.35Z" fill="#EC762E" />
</svg>